<?xml version="1.0" encoding="UTF-8" standalone="no"?>
<!-- Created with Inkscape (http://www.inkscape.org/) -->

<svg
   xmlns:dc="http://purl.org/dc/elements/1.1/"
   xmlns:cc="http://creativecommons.org/ns#"
   xmlns:rdf="http://www.w3.org/1999/02/22-rdf-syntax-ns#"
   xmlns:svg="http://www.w3.org/2000/svg"
   xmlns="http://www.w3.org/2000/svg"
   xmlns:sodipodi="http://sodipodi.sourceforge.net/DTD/sodipodi-0.dtd"
   xmlns:inkscape="http://www.inkscape.org/namespaces/inkscape"
   version="1.1"
   id="svg869"
   width="627"
   height="258.91217"
   viewBox="0 0 627.00001 258.91217"
   sodipodi:docname="icon_mail.svg"
   inkscape:version="0.92.3 (2405546, 2018-03-11)">
  <metadata
     id="metadata875">
    <rdf:RDF>
      <cc:Work
         rdf:about="">
        <dc:format>image/svg+xml</dc:format>
        <dc:type
           rdf:resource="http://purl.org/dc/dcmitype/StillImage" />
        <dc:title></dc:title>
      </cc:Work>
    </rdf:RDF>
  </metadata>
  <defs
     id="defs873" />
  <sodipodi:namedview
     pagecolor="#ffffff"
     bordercolor="#666666"
     borderopacity="1"
     objecttolerance="10"
     gridtolerance="10"
     guidetolerance="10"
     inkscape:pageopacity="0"
     inkscape:pageshadow="2"
     inkscape:window-width="1920"
     inkscape:window-height="1055"
     id="namedview871"
     showgrid="false"
     inkscape:zoom="0.59869295"
     inkscape:cx="-468.55959"
     inkscape:cy="-56.504185"
     inkscape:window-x="0"
     inkscape:window-y="0"
     inkscape:window-maximized="1"
     inkscape:current-layer="g967" />
  <g
     id="g967"
     transform="translate(474.0643,-84.786283)">
    <path
       inkscape:connector-curvature="0"
       id="path913"
       d="m -314.16543,341.33596 c -5.24416,-2.3816 -11.11087,-8.24831 -13.49247,-13.49247 -1.74378,-3.83973 -1.86389,-7.62255 -1.88445,-59.35112 l -0.022,-55.25 h 8.99066 8.99067 l 0.25933,49.42126 0.25934,49.42126 48.5,-45.08993 c 26.675,-24.79947 48.38166,-45.35153 48.23703,-45.67126 -0.14464,-0.31973 -21.96964,-23.79704 -48.5,-52.17179 l -48.23703,-51.59046 -0.28753,8.84046 -0.28752,8.84046 h -8.96248 -8.96247 l 0.022,-15.25 c 0.0183,-12.70801 0.33242,-15.93361 1.88445,-19.35112 2.3816,-5.244163 8.24831,-11.110873 13.49247,-13.492473 3.94163,-1.79006 9.91502,-1.86249 153.60113,-1.86249 143.686102,0 149.659492,0.0724 153.601122,1.86249 5.24416,2.3816 11.11087,8.24831 13.49247,13.492473 1.78034,3.92024 1.86249,8.9306 1.86249,113.60112 0,104.67052 -0.0822,109.68088 -1.86249,113.60112 -2.3816,5.24416 -8.24831,11.11087 -13.49247,13.49247 -3.94163,1.79006 -9.91502,1.86249 -153.601122,1.86249 -143.68611,0 -149.6595,-0.0724 -153.60113,-1.86249 z m 302.408312,-1.27121 c 6.59008,-1.65371 15.36149,-10.42512 17.0152,-17.0152 1.68355,-6.70895 1.68355,-210.90541 0,-217.61436 -1.65371,-6.590083 -10.42512,-15.361493 -17.0152,-17.015203 -6.73987,-1.69131 -290.874492,-1.69131 -297.614362,0 -3.53948,0.88819 -6.06233,2.54712 -10.2652,6.75 -6.84588,6.845863 -7.92763,10.463963 -7.92763,26.515203 v 11.55718 h 7 7 v -10.07332 c 0,-8.32335 0.25426,-10.01716 1.46361,-9.75 1.72214,0.38043 101.5028,106.85306 101.51503,108.32332 0.0107,1.28207 -99.73092,93.89232 -101.58658,94.32332 -1.17533,0.27299 -1.39206,-7.55055 -1.39206,-50.25 v -50.57332 h -7 -7 v 51.55718 c 0,36.23225 0.35004,52.95208 1.17762,56.25 1.54158,6.14324 10.45485,15.38226 16.33749,16.93458 5.98932,1.58047 292.007102,1.65777 298.292082,0.0806 z M -301.54497,325.99237 c 0.0216,-1.39311 98.46892,-93.07822 100.44541,-93.54591 0.68779,-0.16275 5.70209,4.51363 11.14289,10.39194 11.21267,12.11432 14.93661,14.81622 23.41409,16.98805 5.36879,1.37542 6.58777,1.37542 11.95656,0 8.47748,-2.17183 12.20142,-4.87373 23.41409,-16.98805 5.4408,-5.87831 10.4551,-10.55469 11.14289,-10.39194 1.97648,0.46769 100.423842,92.1528 100.445402,93.54591 0.0154,0.99418 -28.83702,1.25 -140.980662,1.25 -112.14366,0 -140.99605,-0.25582 -140.98067,-1.25 z m 272.287672,-6.14592 c -3.19385,-2.96776 -24.932,-23.16831 -48.307,-44.89012 l -42.500002,-39.4942 -11.5,11.7808 c -13.00669,13.32427 -17.85559,15.99944 -29,15.99944 -11.14441,0 -15.99332,-2.67517 -29,-15.99944 l -11.5,-11.7808 -42.50001,39.4942 c -23.375,21.72181 -45.11315,41.92236 -48.307,44.89012 l -5.807,5.39592 H -160.5643 -23.450298 Z M -121.5643,302.24237 v -9 h 9 9 v 9 9 h -9 -9 z m 16,0 v -7 h -7 -7 v 7 7 h 7 7 z m 16.000002,0 v -9 h 9 9 v 9 9 h -9 -9 z m 16,0 v -7 h -7 -7 v 7 7 h 7 7 z m 13.5,-32.59138 c -27.5,-25.57595 -50.000002,-47.1392 -50.000002,-47.91834 0,-1.79528 99.563112,-108.46923 101.250002,-108.48132 0.99185,-0.007 1.25,20.95293 1.25,101.49104 0,80.55724 -0.25792,101.49075 -1.25,101.45517 -0.6875,-0.0247 -23.75,-20.97061 -51.25,-46.54655 z m 50.25947,-103.17772 -0.25947,-48.92117 -48.34785,51.75373 c -26.59132,28.46455 -48.235622,52.13236 -48.098452,52.59513 0.13717,0.46278 21.893712,20.93684 48.347842,45.49792 l 48.09846,44.65651 0.25947,-48.33047 c 0.1427,-26.58176 0.1427,-70.345 0,-97.25165 z m -159.595022,78.5191 c -3.95908,-2.84479 -132.55078,-140.51119 -132.98778,-142.37272 -0.27344,-1.16476 21.61001,-1.37728 141.82333,-1.37728 120.068332,0 142.096432,0.21347 141.823312,1.37438 -0.43704,1.85778 -129.035172,139.53108 -132.990482,142.37562 -2.3704,1.70472 -4.511,2.25 -8.83283,2.25 -4.32104,0 -6.46353,-0.54559 -8.83555,-2.25 z m 14.48829,-1.5 c 1.71686,-0.9625 32.13948,-32.8 67.605832,-70.75 l 64.48428,-69 -68.87143,-0.25685 c -37.879292,-0.14126 -99.866182,-0.14126 -137.748642,0 l -68.87722,0.25685 64.48392,69 c 35.46616,37.95 65.89138,69.7875 67.61161,70.75 1.72023,0.9625 4.26674,1.75 5.6589,1.75 1.39216,0 3.9359,-0.7875 5.65275,-1.75 z m -302.65274,-21.25 v -9 h 9 9 v 9 9 h -9 -9 z m 16,0 v -7 h -7 -7 v 7 7 h 7 7 z m 16,0 v -9 h 41 40.99999 v 9 9 h -40.99999 -41 z m 79.99999,0 v -7 h -38.99999 -39 v 7 7 h 39 38.99999 z m -63.99999,-32 v -9 h 29 28.99999 v 9 9 h -28.99999 -29 z m 55.99999,0 v -7 h -26.99999 -27 v 7 7 h 27 26.99999 z m 24,0 v -9 h 9 9 v 9 9 h -9 -9 z m 16,0 v -7 h -7 -7 v 7 7 h 7 7 z m -159.99999,-32 v -9 h 9 9 v 9 9 h -9 -9 z m 16,0 v -7 h -7 -7 v 7 7 h 7 7 z m 16,0 v -9 h 69 68.99999 v 9 9 h -68.99999 -69 z m 135.99999,0 v -7 h -66.99999 -67 v 7 7 h 67 66.99999 z"
       style="fill:#4caf50;stroke:#4caf50;stroke-opacity:1;fill-opacity:1" />
    <path
       inkscape:connector-curvature="0"
       id="path921"
       d="m -269.50648,340.43111 c -18.72592,-0.17603 -35.66823,-0.45508 -37.64957,-0.62012 -3.10512,-0.25866 -3.9602,-0.51151 -6.19379,-1.83157 -3.34179,-1.975 -9.36927,-8.26349 -11.17683,-11.66082 -0.95225,-1.78975 -1.51284,-3.58691 -1.81951,-5.83295 -0.28227,-2.06728 -0.51692,-21.71388 -0.64614,-54.09694 l -0.20289,-50.85072 6.61575,0.1152 6.61575,0.11519 0.20879,49.4828 c 0.11483,27.21553 0.36982,49.81163 0.56664,50.21355 0.8471,1.7298 0.6368,1.89742 21.55146,-17.178 23.74346,-21.65547 62.74913,-58.03106 75.76684,-70.65804 5.81006,-5.63568 5.8486,-5.68537 5.18123,-6.68122 -2.21146,-3.29993 -57.84046,-63.04026 -87.93694,-94.43603 -9.75712,-10.17834 -12.94193,-13.25804 -13.71052,-13.25804 -0.55062,0 -1.03572,0.047 -1.07798,0.10439 -0.0423,0.0574 -0.1832,4.42631 -0.31319,9.70865 l -0.23633,9.60426 -6.62316,0.11523 -6.62316,0.11523 0.19977,-12.01616 c 0.27382,-16.47027 0.72673,-17.97484 7.53038,-25.01615 2.81335,-2.911616 4.89309,-4.659949 6.6697,-5.606872 2.4071,-1.282973 2.96343,-1.398729 8.23041,-1.71251 18.02608,-1.073905 269.40625,-1.087882 287.971021,-0.01601 4.773398,0.275601 5.746493,0.459681 7.6496725,1.447085 5.0991539,2.645536 10.1632732,7.748434 12.6367782,12.733547 1.2876676,2.59517 1.3003118,2.68557 1.7231914,12.31851 0.571687,13.02265 0.5713362,185.53329 -4.051e-4,198.55962 l -0.4264122,9.71523 -1.4073241,2.81206 C 1.557579,330.13416 -4.7310369,336.40929 -8.6920114,338.352 l -2.8996286,1.42215 -9.001297,0.2984 c -13.422214,0.44496 -209.649753,0.72762 -248.913543,0.35856 z m 248.159376,-13.59538 c 1.090918,-0.15671 1.983487,-0.50324 1.983487,-0.77007 0,-1.14074 -26.501122,-26.35991 -67.856152,-64.57372 -21.086941,-19.48522 -32.026541,-29.22929 -32.815541,-29.22929 -1.15096,0 -4.75064,3.26497 -12.49149,11.33 -8.5302,8.88744 -11.53509,11.47609 -15.60691,13.44501 -3.74673,1.81171 -9.30854,3.28612 -12.39607,3.28612 -2.78131,0 -8.4235,-1.37122 -11.61536,-2.82287 -4.15227,-1.88845 -7.68888,-4.89091 -17.7793,-15.09399 -7.03149,-7.11001 -10.31353,-10.15173 -10.95044,-10.14866 -0.97045,0.005 -3.31766,2.02285 -18.92537,16.27233 -20.92225,19.10153 -62.55588,58.04758 -77.65134,72.6387 -3.81069,3.68337 -4.67874,4.72995 -4.26569,5.14299 0.36628,0.36628 3.30421,0.59393 10.00397,0.77517 12.79646,0.34617 267.857252,0.1087 270.366206,-0.25172 z m 13.3973345,-12.55272 c 0.5061067,-2.98725 0.8258658,-172.81874 0.3539962,-188.01388 -0.2696917,-8.6846 -0.5478226,-12.81873 -0.8849361,-13.15365 -0.7551993,-0.75031 -14.5430436,13.45589 -52.0141756,53.59241 -30.451574,32.61764 -49.900375,54.03132 -49.900375,54.94173 0,2.10014 99.985979,95.38506 101.648567,94.83609 0.246867,-0.0815 0.6054815,-1.07273 0.7969235,-2.2027 z M -153.75519,246.56536 c 0.9961,-0.44071 2.7725,-1.72514 3.94756,-2.85428 9.29159,-8.92843 104.878834,-111.12711 127.222257,-136.02176 2.231298,-2.48608 4.056909,-4.76606 4.056909,-5.06663 0,-0.30057 -0.516751,-0.66688 -1.148335,-0.81402 -0.631584,-0.14713 -18.811814,-0.46851 -40.400509,-0.71417 -42.122712,-0.47932 -225.488852,-0.16588 -236.038772,0.40347 -3.33085,0.17976 -6.15662,0.52375 -6.41363,0.78076 -0.33418,0.33418 0.54427,1.57966 3.22235,4.56871 18.52828,20.67972 83.06852,89.89253 117.45694,125.96056 11.98902,12.5746 13.34548,13.73851 16.89621,14.49793 2.79489,0.59776 9.11944,0.17953 11.19902,-0.74057 z"
       style="opacity:0.98000004;fill:#4caf50;fill-opacity:1;stroke:#4caf50;stroke-width:1.88976383;stroke-miterlimit:4;stroke-dasharray:none;stroke-opacity:1" />
    <path
       inkscape:connector-curvature="0"
       id="path923"
       d="m -439.02782,158.35292 v -6.6825 h 66.61402 66.61403 l -0.115,6.57682 -0.11499,6.57683 -66.49903,0.10568 -66.49903,0.10567 z"
       style="opacity:0.98000004;fill:#4caf50;fill-opacity:1;stroke:#4caf50;stroke-width:0.78912061;stroke-miterlimit:4;stroke-dasharray:none;stroke-opacity:1" />
    <path
       inkscape:connector-curvature="0"
       id="path925"
       d="m -407.29202,190.29623 v -6.47244 h 26.72488 26.72489 v 6.47244 6.47243 h -26.72489 -26.72488 z"
       style="opacity:0.98000004;fill:#4caf50;fill-opacity:1;stroke:#4caf50;stroke-width:0.78912061;stroke-miterlimit:4;stroke-dasharray:none;stroke-opacity:1" />
    <path
       inkscape:connector-curvature="0"
       id="path927"
       d="m -423.15992,222.24082 v -6.68122 h 38.62581 38.62581 v 6.68122 6.68122 h -38.62581 -38.62581 z"
       style="opacity:0.98000004;fill:#4caf50;fill-opacity:1;stroke:#4caf50;stroke-width:0.78912061;stroke-miterlimit:4;stroke-dasharray:none;stroke-opacity:1" />
    <path
       inkscape:connector-curvature="0"
       id="path929"
       d="m -327.11737,190.30683 v -6.48304 h 6.6921 6.6921 l -0.11527,6.36804 -0.11527,6.36804 -6.57683,0.115 -6.57683,0.115 z"
       style="opacity:0.98000004;fill:#4caf50;fill-opacity:1;stroke:#4caf50;stroke-width:0.78912061;stroke-miterlimit:4;stroke-dasharray:none;stroke-opacity:1" />
    <path
       inkscape:connector-curvature="0"
       id="path931"
       d="m -119.16436,302.20668 v -6.47243 h 6.68122 6.68122 v 6.47243 6.47244 h -6.68122 -6.68122 z"
       style="opacity:0.98000004;fill:#4caf50;fill-opacity:1;stroke:#4caf50;stroke-width:0.78912061;stroke-miterlimit:4;stroke-dasharray:none;stroke-opacity:1" />
    <path
       inkscape:connector-curvature="0"
       id="path933"
       d="m -87.010981,302.20668 v -6.47243 h 6.472433 6.472433 v 6.47243 6.47244 h -6.472433 -6.472433 z"
       style="opacity:0.98000004;fill:#4caf50;fill-opacity:1;stroke:#4caf50;stroke-width:0.78912061;stroke-miterlimit:4;stroke-dasharray:none;stroke-opacity:1" />
    <path
       inkscape:connector-curvature="0"
       id="path935"
       d="m -470.74068,158.67649 v -6.68122 h 6.68122 6.68122 v 6.68122 6.68122 h -6.68122 -6.68122 z"
       style="opacity:0.98000004;fill:#4caf50;fill-opacity:1;stroke:#4caf50;stroke-width:3.15648246;stroke-miterlimit:4;stroke-dasharray:none;stroke-opacity:1" />
    <path
       inkscape:connector-curvature="0"
       id="path937"
       d="m -455.70793,222.14809 v -6.68122 h 6.68122 6.68122 v 6.68122 6.68122 h -6.68122 -6.68122 z"
       style="opacity:0.98000004;fill:#4caf50;fill-opacity:1;stroke:#4caf50;stroke-width:3.15648246;stroke-miterlimit:4;stroke-dasharray:none;stroke-opacity:1" />
  </g>
</svg>
