<?xml version="1.0" encoding="UTF-8" standalone="no"?>
<!-- Svg Vector Icons : http://www.onlinewebfonts.com/icon -->

<svg
   xmlns:dc="http://purl.org/dc/elements/1.1/"
   xmlns:cc="http://creativecommons.org/ns#"
   xmlns:rdf="http://www.w3.org/1999/02/22-rdf-syntax-ns#"
   xmlns:svg="http://www.w3.org/2000/svg"
   xmlns="http://www.w3.org/2000/svg"
   xmlns:sodipodi="http://sodipodi.sourceforge.net/DTD/sodipodi-0.dtd"
   xmlns:inkscape="http://www.inkscape.org/namespaces/inkscape"
   version="1.1"
   x="0px"
   y="0px"
   viewBox="0 0 1000 1000"
   enable-background="new 0 0 1000 1000"
   xml:space="preserve"
   id="svg16"
   sodipodi:docname="icon_sofa.svg"
   inkscape:version="0.92.3 (2405546, 2018-03-11)"><defs
   id="defs20" /><sodipodi:namedview
   pagecolor="#ffffff"
   bordercolor="#666666"
   borderopacity="1"
   objecttolerance="10"
   gridtolerance="10"
   guidetolerance="10"
   inkscape:pageopacity="0"
   inkscape:pageshadow="2"
   inkscape:window-width="1920"
   inkscape:window-height="1055"
   id="namedview18"
   showgrid="false"
   inkscape:zoom="0.236"
   inkscape:cx="500"
   inkscape:cy="500"
   inkscape:window-x="0"
   inkscape:window-y="0"
   inkscape:window-maximized="1"
   inkscape:current-layer="g12" />
<metadata
   id="metadata2"> Svg Vector Icons : http://www.onlinewebfonts.com/icon <rdf:RDF><cc:Work
     rdf:about=""><dc:format>image/svg+xml</dc:format><dc:type
       rdf:resource="http://purl.org/dc/dcmitype/StillImage" /></cc:Work></rdf:RDF></metadata>
<g
   id="g14"><g
     transform="translate(0.000000,512.000000) scale(0.100000,-0.100000)"
     id="g12"><path
       d="M7533.9,5005.2c-65.2-30.7-84.3-99.7-84.3-293.3v-182.1h-258.8c-149.5,0-276-9.6-304.8-21.1c-30.7-15.3-212.8-270.3-517.5-728.4l-471.5-707.3H4601.2H3305.4l-55.6-55.6l-55.6-55.6v-385.3c0-377.6,0-383.4,46-437c44.1-51.7,53.7-53.7,249.2-59.4l203.2-7.7v-189.8c0-178.3,3.8-195.5,47.9-237.7c46-46,51.8-47.9,354.6-47.9c302.9,0,308.6,1.9,354.6,47.9c44.1,42.2,47.9,59.4,47.9,239.6v191.7h1888.1h1888.1v-191.7c0-180.2,3.8-197.4,47.9-239.6c46-46,51.8-47.9,354.6-47.9c302.9,0,308.6,1.9,354.6,47.9c44.1,42.2,47.9,59.4,47.9,237.7v189.8l203.2,7.7c195.5,5.7,205.1,7.7,249.2,59.4c46,53.7,46,59.4,46,444.7v389.1l-59.4,49.8c-53.7,46-72.9,49.8-249.2,49.8h-189.8v757.1c1.9,500.3-5.8,768.7-19.2,795.5c-34.5,65.2-86.3,76.7-362.3,76.7h-270.3v115c0,101.6-5.7,122.7-49.8,162.9c-51.8,47.9-53.7,47.9-427.5,46C7733.3,5026.3,7556.9,5016.7,7533.9,5005.2z M8101.3,3887.7v-814.7h-162.9h-162.9v814.7v814.7h162.9h162.9V3887.7z M8753,3724.8v-651.7h-162.9h-162.9v651.7v651.7h162.9H8753V3724.8z M7284.7,4181c-7.7-13.4-176.4-268.4-375.7-565.5l-360.4-542.5h-126.5c-69,0-122.7,7.7-118.8,17.2c3.8,9.6,170.6,262.6,369.9,565.5l364.2,546.3l130.3,1.9C7267.5,4204,7294.3,4198.2,7284.7,4181z M7443.8,3078.8c-5.7-3.8-116.9-3.8-251.1-1.9l-241.5,5.7l245.4,366.1l243.4,368l5.7-364.2C7447.7,3251.3,7447.7,3082.6,7443.8,3078.8z M9247.6,2570.8l-5.7-159.1H6385.7H3529.6l-5.7,159.1l-5.8,157.2h2867.6h2867.6L9247.6,2570.8z M4171.8,1999.6v-76.7h-76.7h-76.7v76.7v76.7h76.7h76.7V1999.6z M8753,1999.6v-76.7h-76.7h-76.7v76.7v76.7h76.7h76.7V1999.6z"
       id="path4"
       style="fill:#4caf50;fill-opacity:1" /><path
       d="M1909.9,744.1c-354.6-78.6-707.3-289.4-927.7-557.8C769.4-72.5,667.8-298.7,595-676.3c-3.8-24.9-38.3-53.7-88.2-76.7C382.2-806.6,225-963.8,163.7-1094.2C64-1303.1,64-1297.4,290.2-2407.2c113.1-559.7,218.5-1035.1,239.6-1073.4c74.8-149.5,272.2-285.6,456.2-318.2l80.5-13.4v-431.3v-431.3l55.6-55.6l55.6-55.6h297.1c268.4,0,300.9,3.8,345,38.3c38.3,30.7,80.5,130.3,199.4,488.8l149.5,450.5l2911.7-3.8L7992-3818l151.4-450.5c101.6-308.6,161-462,189.8-483.1c34.5-30.7,82.4-34.5,343.1-34.5c425.5,0,391-46,402.5,529.1l9.6,456.2l59.4,13.4c176.4,34.5,377.6,205.1,437.1,368c24.9,67.1,279.8,1698.3,312.4,1993.5c23,203.2-109.3,479.2-285.6,598.1c-80.5,53.7-88.2,65.2-101.6,159.1C9425.8-20.7,8942.8,533.2,8298.7,719.2c-149.5,44.1-153.3,44.1-1529.6,44.1H5389l-172.5-55.6c-93.9-30.7-193.6-57.5-220.4-57.5c-26.8,0-124.6,26.8-220.4,57.5l-172.5,55.6l-1284.3,3.8C2270.3,769,2011.5,765.2,1909.9,744.1z M4695.1,393.3l128.4-44.1V-904.4v-1255.5H3292H1760.4l-9.6,44.1c-5.8,23-28.8,189.8-51.8,368c-24.9,180.2-59.4,371.9-80.5,425.5c-53.7,147.6-178.3,324-291.4,412.1c-103.5,84.4-304.8,187.9-360.4,187.9c-44.1,0-44.1,67.1-5.7,220.4c95.8,369.9,408.3,722.7,753.3,853c243.4,92,260.7,93.9,1594.8,90.1C4560.9,437.4,4564.7,437.4,4695.1,393.3z M8302.6,385.6c402.5-136.1,701.6-437,824.2-826.2c26.9-82.4,47.9-174.4,47.9-203.2c0-49.9-7.7-55.6-88.2-67.1c-247.3-32.6-544.4-264.5-670.9-519.5c-72.9-151.4-93.9-268.4-113.1-665.1l-13.4-264.5H6728.9H5168.5v1253.6V347.3l92,30.7c51.8,17.3,130.4,38.3,178.3,47.9c46,9.6,674.7,15.3,1397.4,15.3l1313-3.8L8302.6,385.6z M1010.9-1080.8c107.3-47.9,212.8-153.3,266.4-268.4c47.9-101.6,61.3-203.2,182.1-1307.3c53.7-485,80.5-801.2,69-812.7c-9.6-9.6-139.9-13.4-293.3-9.6c-308.6,5.8-360.4,24.9-408.3,138c-34.5,82.4-412.1,1939.9-412.1,2026.1c0,99.7,59.4,191.7,155.3,243.4c70.9,38.3,103.5,44.1,218.5,36.4C865.2-1038.6,961.1-1057.8,1010.9-1080.8z M9433.5-1076.9c82.4-47.9,143.8-151.4,143.8-245.4c0-109.3-293.3-1980.1-318.2-2028c-55.6-107.4-103.5-122.7-417.9-128.4l-285.6-5.7l13.4,293.3c21.1,469.6,69,1311.1,88.2,1543.1c21.1,256.9,61.3,354.6,195.5,475.4C9015.6-1025.2,9274.4-983,9433.5-1076.9z M8247-2853.8c-7.7-193.6-17.2-414-24.9-490.7l-11.5-138h-3159H1890.7l-9.6,44.1c-3.8,23-21.1,201.3-38.3,396.8c-15.3,195.5-34.5,394.9-40.3,446.6l-11.5,90.1h3235.6h3233.7L8247-2853.8z M1814.1-3823.8c0-7.7-46-151.4-101.6-320.1L1609-4450.6l-107.3-5.8l-109.3-5.7v327.8v325.9h210.9C1720.1-3808.4,1814.1-3814.2,1814.1-3823.8z M8753-4134.3v-325.9h-101.6h-99.7l-109.3,325.9l-107.3,325.9h208.9H8753V-4134.3z"
       id="path6"
       style="fill:#4caf50;fill-opacity:1" /><path
       d="M2425.5-260.3c-84.3-84.4-74.8-138,49.8-268.4c97.8-103.5,105.4-116.9,86.3-162.9c-24.9-65.2-24.9-279.9-1.9-343.1c15.3-40.2,5.8-57.5-74.8-138c-51.8-51.8-99.7-116.9-105.4-145.7c-26.8-120.8,101.6-232,216.6-187.9c28.8,11.5,92,57.5,139.9,105.4c80.5,78.6,92,84.3,139.9,65.2c67.1-24.9,231.9-24.9,318.2,0c63.3,17.3,70.9,15.3,162.9-74.7c116.9-113.1,147.6-124.6,230-90.1c138,59.4,141.8,166.8,7.7,308.6l-97.8,103.5l19.2,116.9c15.3,80.5,15.3,149.5,1.9,224.3l-21.1,107.3l76.7,78.6c134.2,138,147.6,203.2,69,297.1c-78.6,93.9-157.2,84.3-285.6-38.3l-101.6-95.8l-115,23c-92,19.2-136.1,19.2-224.3,0l-107.3-24.9l-103.5,97.8C2580.8-183.7,2513.7-174.1,2425.5-260.3z M3146.3-724.2c109.3-95.8,107.3-174.4-5.7-279.9c-72.8-67.1-155.3-59.4-233.9,23c-88.2,92-88.2,166.8,5.7,253C3000.6-649.5,3058.1-647.5,3146.3-724.2z"
       id="path8"
       style="fill:#4caf50;fill-opacity:1" /><path
       d="M6349.3-264.2c-78.6-93.9-65.2-159.1,69-297.1l76.7-78.6L6473.9-753c-15.3-82.4-15.3-141.9,0-222.4l23-111.2l-99.7-105.4c-134.2-141.8-130.3-249.2,7.7-308.6c82.4-34.5,113.1-23,230,90.1c92,90.1,99.7,92,162.9,74.7c86.3-24.9,251.1-24.9,318.2,0c47.9,19.2,59.4,13.4,139.9-65.2c47.9-47.9,111.2-93.9,139.9-105.4c115-44.1,243.4,67.1,216.6,187.9c-5.8,28.8-53.7,93.9-105.4,145.7c-80.5,80.5-90.1,97.8-74.8,138c23,63.3,23,277.9-1.9,343.1c-19.2,46-11.5,59.4,86.3,162.9c124.6,130.3,134.2,184,49.8,268.4c-86.3,86.3-155.3,76.7-279.9-42.2l-101.6-95.8l-115,23c-92,19.2-136.1,19.2-224.3,0l-107.3-24.9l-103.5,97.8C6506.5-179.8,6427.9-170.3,6349.3-264.2z M7079.6-728.1c93.9-86.3,93.9-161,5.8-253c-78.6-82.4-161-90.1-233.9-23c-113.1,105.4-115,184-5.7,279.9C6933.9-647.5,6991.4-649.5,7079.6-728.1z"
       id="path10"
       style="fill:#4caf50;fill-opacity:1" /></g></g>
</svg>